<svg width="59" height="50" viewBox="0 0 59 50" fill="none" xmlns="http://www.w3.org/2000/svg">
<path d="M23.2499 18.75C23.2499 18.1975 23.4694 17.6676 23.8601 17.2769C24.2508 16.8862 24.7807 16.6667 25.3333 16.6667H41.9999C42.5525 16.6667 43.0824 16.8862 43.4731 17.2769C43.8638 17.6676 44.0833 18.1975 44.0833 18.75C44.0833 19.3025 43.8638 19.8324 43.4731 20.2231C43.0824 20.6138 42.5525 20.8333 41.9999 20.8333H25.3333C24.7807 20.8333 24.2508 20.6138 23.8601 20.2231C23.4694 19.8324 23.2499 19.3025 23.2499 18.75ZM25.3333 29.1667H41.9999C42.5525 29.1667 43.0824 28.9472 43.4731 28.5565C43.8638 28.1658 44.0833 27.6359 44.0833 27.0833C44.0833 26.5308 43.8638 26.0009 43.4731 25.6102C43.0824 25.2195 42.5525 25 41.9999 25H25.3333C24.7807 25 24.2508 25.2195 23.8601 25.6102C23.4694 26.0009 23.2499 26.5308 23.2499 27.0833C23.2499 27.6359 23.4694 28.1658 23.8601 28.5565C24.2508 28.9472 24.7807 29.1667 25.3333 29.1667ZM58.6666 41.6667C58.6666 43.8768 57.7886 45.9964 56.2258 47.5592C54.663 49.122 52.5434 50 50.3333 50H21.1666C18.9564 50 16.8368 49.122 15.274 47.5592C13.7112 45.9964 12.8333 43.8768 12.8333 41.6667V8.33333C12.8333 7.22826 12.3943 6.16846 11.6129 5.38705C10.8315 4.60565 9.77165 4.16667 8.66658 4.16667C7.56152 4.16667 6.50171 4.60565 5.72031 5.38705C4.9389 6.16846 4.49992 7.22826 4.49992 8.33333C4.49992 9.82812 5.75773 10.8385 5.77075 10.849C6.11555 11.1143 6.36862 11.4809 6.49446 11.8974C6.62031 12.3139 6.61261 12.7593 6.47244 13.1712C6.33228 13.583 6.06668 13.9407 5.71292 14.194C5.35916 14.4472 4.93499 14.5834 4.49992 14.5833C4.0494 14.5841 3.61111 14.4368 3.25252 14.1641C2.95044 13.9427 0.333252 11.8776 0.333252 8.33333C0.333252 6.1232 1.21123 4.00358 2.77403 2.44078C4.33683 0.877973 6.45645 0 8.66658 0H44.0833C46.2934 0 48.413 0.877973 49.9758 2.44078C51.5386 4.00358 52.4166 6.1232 52.4166 8.33333V35.4167H54.4999C54.9507 35.4167 55.3893 35.5629 55.7499 35.8333C56.0624 36.0573 58.6666 38.1224 58.6666 41.6667ZM23.3176 36.8437C23.46 36.4236 23.7316 36.0592 24.0937 35.8029C24.4558 35.5465 24.8897 35.4113 25.3333 35.4167H48.2499V8.33333C48.2499 7.22826 47.8109 6.16846 47.0295 5.38705C46.2481 4.60565 45.1883 4.16667 44.0833 4.16667H15.8775C16.6143 5.43153 17.0017 6.86951 16.9999 8.33333V41.6667C16.9999 42.7717 17.4389 43.8315 18.2203 44.6129C19.0017 45.3943 20.0615 45.8333 21.1666 45.8333C22.2717 45.8333 23.3315 45.3943 24.1129 44.6129C24.8943 43.8315 25.3333 42.7717 25.3333 41.6667C25.3333 40.1719 24.0754 39.1615 24.0624 39.151C23.7074 38.8971 23.4433 38.5357 23.3092 38.1203C23.1751 37.7049 23.1781 37.2574 23.3176 36.8437ZM54.4999 41.6667C54.4739 40.8948 54.176 40.1569 53.6588 39.5833H29.1796C29.389 40.2579 29.4952 40.9603 29.4947 41.6667C29.4967 43.1298 29.1112 44.5674 28.3775 45.8333H50.3333C51.4383 45.8333 52.4981 45.3943 53.2795 44.6129C54.0609 43.8315 54.4999 42.7717 54.4999 41.6667Z" fill="#FFD600"/>
</svg>
